<?xml version="1.0" standalone="no"?>
<!DOCTYPE svg PUBLIC "-//W3C//DTD SVG 20010904//EN"
 "http://www.w3.org/TR/2001/REC-SVG-20010904/DTD/svg10.dtd">
<svg version="1.0" xmlns="http://www.w3.org/2000/svg"
 width="901.000000pt" height="901.000000pt" viewBox="0 0 901.000000 901.000000"
 preserveAspectRatio="xMidYMid meet">
<metadata>
Created by potrace 1.11, written by Peter Selinger 2001-2013
</metadata>
<g transform="translate(0.000000,901.000000) scale(0.100000,-0.100000)"
fill="#000000" stroke="none">
<path d="M3843 8996 c-330 -76 -605 -526 -697 -1143 -76 -506 -50 -1148 79
-1909 125 -737 367 -1618 631 -2299 103 -263 147 -365 158 -365 11 1 172 75
254 118 23 12 42 27 42 32 0 5 -25 82 -55 172 -229 672 -400 1418 -489 2138
-22 174 -46 504 -46 632 l0 107 143 70 c514 256 1134 305 1947 156 454 -83
975 -250 1313 -421 l78 -39 -102 -145 c-139 -200 -302 -420 -308 -420 -3 0
-22 28 -41 62 -106 187 -345 449 -519 567 -91 62 -236 131 -276 131 l-20 -1
20 -11 c51 -29 227 -170 298 -238 134 -127 275 -318 372 -502 l40 -76 165 -66
c91 -36 170 -66 175 -65 11 0 151 216 300 464 53 88 100 164 105 169 19 20
268 -164 388 -286 129 -131 193 -244 200 -355 11 -168 -101 -267 -313 -275
-30 -1 -55 -5 -55 -8 0 -3 59 -38 132 -78 l131 -73 91 6 c397 27 582 123 633
330 15 60 15 72 0 145 -49 251 -287 535 -652 780 -523 351 -1216 591 -2002
694 -24 3 -60 8 -80 11 -274 35 -775 51 -1018 32 -397 -31 -813 -151 -1092
-316 l-53 -31 0 32 c1 72 30 334 50 445 42 228 120 439 214 582 57 85 179 202
248 237 170 86 396 -5 656 -264 121 -119 304 -353 470 -598 22 -34 47 -64 54
-66 7 -3 42 -6 78 -7 36 -1 117 -6 180 -11 63 -5 115 -8 117 -7 4 5 -201 369
-299 532 -451 746 -833 1175 -1203 1355 -162 79 -314 105 -442 76z"/>
<path d="M8270 8303 c-44 -198 -262 -692 -491 -1110 -87 -159 -272 -477 -325
-558 -16 -24 -16 -24 82 -70 53 -25 98 -44 99 -43 11 12 260 522 316 644 155
343 310 761 344 933 18 88 17 233 -2 252 -6 6 -14 -10 -23 -48z"/>
<path d="M2450 7781 c-80 -26 -175 -106 -240 -201 -248 -365 -313 -1038 -175
-1798 60 -327 192 -767 330 -1097 80 -194 247 -536 340 -700 251 -443 567
-797 905 -1014 52 -33 104 -67 115 -74 18 -14 14 -17 -61 -55 -489 -246 -917
-321 -1205 -213 -121 46 -189 112 -226 222 -27 82 -25 289 6 433 40 188 133
434 281 743 l69 143 -82 170 c-45 93 -85 170 -89 170 -3 0 -56 -82 -116 -182
-378 -631 -626 -1167 -721 -1559 -48 -201 -56 -263 -55 -439 0 -150 3 -173 28
-255 36 -119 69 -177 141 -251 72 -74 168 -125 293 -156 75 -19 114 -22 282
-22 163 0 212 4 300 23 511 109 1058 390 1704 875 467 350 837 681 1365 1221
259 265 592 649 817 941 l98 127 -35 29 c-19 17 -81 61 -139 99 l-105 70 -30
-34 c-16 -18 -97 -109 -180 -202 -571 -642 -1365 -1327 -1996 -1722 l-130 -81
-53 30 c-223 128 -464 352 -657 609 -322 429 -621 1171 -753 1869 -26 136 -59
388 -71 533 l-6 77 44 0 c73 0 626 -56 634 -64 1 -1 -28 -63 -66 -138 -76
-151 -139 -329 -172 -488 -28 -130 -32 -351 -9 -445 12 -49 15 -55 17 -30 40
402 126 664 310 949 40 62 45 75 39 110 -26 189 -48 322 -54 328 -4 4 -90 10
-192 14 -102 3 -198 8 -215 9 -16 2 -99 4 -184 4 l-154 1 7 110 c23 381 139
667 301 745 62 29 145 32 198 6 43 -21 118 -92 164 -156 l22 -30 -3 152 -2
153 -64 97 c-82 126 -222 267 -310 313 -57 30 -76 34 -150 37 -47 1 -96 -1
-110 -6z"/>
<path d="M1718 6345 c-2 -1 -59 -5 -128 -9 -361 -19 -808 -75 -1130 -142 -195
-40 -243 -55 -331 -101 -60 -31 -147 -104 -108 -90 46 16 261 58 389 76 358
50 870 77 1290 67 l266 -6 -8 78 c-3 42 -7 90 -7 105 l-1 28 -114 -2 c-63 -1
-116 -2 -118 -4z"/>
<path d="M3926 6233 c-5 -22 -26 -272 -26 -304 0 -4 39 -14 88 -23 989 -193
2040 -548 2741 -929 l114 -61 -6 -156 c-10 -259 -83 -547 -210 -829 -173 -382
-490 -820 -887 -1225 -187 -191 -302 -295 -488 -443 -123 -99 -327 -243 -343
-243 -11 0 -38 56 -184 380 -124 275 -119 250 -47 250 254 0 590 75 807 181
75 36 235 152 235 169 0 5 -26 -4 -57 -19 -280 -135 -487 -182 -822 -187
l-225 -3 -50 -44 c-28 -23 -90 -74 -138 -111 -49 -38 -88 -74 -88 -79 0 -13
155 -311 264 -507 47 -84 86 -157 86 -160 0 -12 -253 -127 -347 -159 -133 -44
-252 -64 -355 -59 -75 4 -97 9 -155 39 -93 47 -126 95 -131 189 -4 73 11 135
55 224 13 26 21 47 16 45 -5 -2 -62 -35 -127 -74 -130 -76 -140 -87 -207 -230
-134 -285 -137 -495 -10 -628 201 -212 731 -148 1276 155 339 189 650 430 975
757 292 293 466 504 712 866 428 627 623 1148 641 1713 l2 73 115 -78 c356
-241 597 -500 695 -747 61 -157 68 -284 20 -383 -88 -178 -425 -328 -865 -383
-154 -19 -374 -40 -425 -40 -27 0 -56 -4 -63 -8 -7 -5 -59 -78 -116 -163
l-104 -154 106 -6 c151 -8 683 -1 875 11 802 51 1296 201 1554 473 120 126
171 257 160 412 -19 270 -223 601 -547 885 -257 227 -535 406 -950 613 -918
460 -2143 826 -3348 1002 -216 31 -209 31 -216 -2z"/>
<path d="M5015 1564 c-44 -30 -81 -58 -83 -62 -3 -11 224 -359 358 -547 269
-378 574 -744 702 -843 56 -43 136 -86 179 -97 22 -5 17 3 -33 56 -279 292
-684 893 -989 1466 -24 46 -46 83 -49 83 -3 0 -41 -25 -85 -56z"/>
</g>
</svg>
