<?xml version="1.0" encoding="UTF-8"?>
<svg xmlns="http://www.w3.org/2000/svg" xmlns:xlink="http://www.w3.org/1999/xlink" width="54pt" height="54pt" viewBox="0 0 54 54" version="1.1">
<g id="surface1">
<path style=" stroke:none;fill-rule:evenodd;fill:rgb(14.901961%,14.901961%,14.901961%);fill-opacity:1;" d="M 41.082031 37.394531 C 41.722656 37.441406 42.363281 37.488281 42.996094 37.511719 C 41.425781 39.878906 39.300781 41.933594 36.675781 43.449219 C 34.050781 44.964844 31.214844 45.789062 28.386719 45.96875 C 28.6875 45.386719 28.984375 44.792969 29.273438 44.191406 C 30.769531 44.007812 32.257812 43.617188 33.699219 43.023438 C 33.71875 42.992188 33.730469 42.964844 33.738281 42.9375 C 33.789062 42.757812 33.953125 42.570312 33.953125 42.570312 L 33.867188 42.359375 L 34.054688 42.097656 C 34.054688 42.097656 34.261719 41.757812 34.394531 41.652344 C 34.523438 41.550781 35.621094 40.601562 35.859375 40.421875 C 36.066406 40.257812 36.980469 39.574219 37.378906 39.25 C 37.433594 39.203125 37.476562 39.164062 37.511719 39.136719 C 37.773438 38.898438 38.277344 38.269531 38.457031 37.976562 C 38.546875 37.84375 38.683594 37.507812 38.808594 37.183594 C 39.570312 37.269531 40.328125 37.339844 41.082031 37.394531 Z M 22.46875 38.6875 C 22.398438 38.675781 22.488281 38.726562 22.550781 38.757812 C 22.53125 38.71875 22.507812 38.695312 22.46875 38.6875 Z M 36.757812 37.347656 C 36.945312 37.371094 37.195312 37.351562 37.382812 37.347656 L 37.4375 37.347656 C 37.621094 37.347656 37.78125 37.269531 38.066406 37.109375 L 38.089844 37.097656 C 37.859375 37.066406 37.617188 37.039062 37.386719 37.007812 C 37.15625 36.972656 36.921875 36.941406 36.6875 36.90625 C 36.851562 37.035156 36.964844 37.140625 36.917969 37.160156 C 36.78125 37.214844 36.546875 37.320312 36.757812 37.347656 Z M 22.550781 38.757812 C 22.554688 38.761719 22.554688 38.761719 22.554688 38.765625 C 22.621094 38.796875 22.59375 38.78125 22.550781 38.757812 Z M 28.472656 24.605469 C 28.472656 24.605469 28.484375 24.621094 28.5 24.636719 C 28.515625 24.609375 28.472656 24.605469 28.472656 24.605469 Z M 34.792969 28.78125 L 34.753906 28.78125 L 34.71875 28.933594 C 34.550781 29.546875 34.382812 30.167969 34.203125 30.785156 C 34.347656 30.789062 34.480469 30.800781 34.480469 30.800781 C 34.480469 30.800781 34.636719 30.730469 34.683594 30.527344 C 34.726562 30.328125 34.84375 30.101562 34.84375 30.101562 C 34.84375 30.101562 34.882812 30.109375 34.953125 30.121094 C 35 30.039062 35.050781 29.925781 35.050781 29.78125 C 35.050781 29.5 34.925781 29.4375 34.925781 29.28125 C 34.925781 29.128906 34.988281 28.753906 34.988281 28.753906 Z M 33.957031 31.617188 L 33.875 31.902344 L 34.003906 31.878906 C 34.003906 31.878906 34.035156 31.96875 34.082031 32.09375 C 34.113281 32.027344 34.132812 31.972656 34.132812 31.972656 C 34.132812 31.972656 34.132812 31.882812 34.089844 31.703125 C 34.082031 31.671875 34.023438 31.644531 33.957031 31.617188 Z M 35.597656 25.601562 L 35.558594 25.582031 C 35.464844 25.960938 35.378906 26.335938 35.28125 26.710938 C 35.347656 26.75 35.300781 26.761719 35.566406 26.773438 C 35.941406 26.792969 35.679688 26.792969 35.960938 26.792969 C 36.242188 26.792969 36.289062 26.824219 36.339844 26.707031 C 36.386719 26.59375 36.402344 26.773438 36.402344 26.460938 C 36.402344 26.144531 36.257812 26.015625 36.15625 25.933594 C 36.058594 25.855469 35.894531 25.734375 35.597656 25.601562 Z M 53.589844 34.003906 C 52.746094 37.160156 43.570312 37.535156 31.929688 35.207031 C 28.117188 46.480469 23.207031 54.257812 20.058594 53.414062 C 18.074219 52.878906 17.191406 49.023438 17.390625 43.320312 C 17.460938 43.355469 17.527344 43.398438 17.59375 43.429688 C 14.792969 41.808594 12.367188 39.460938 10.636719 36.457031 C 9.121094 33.820312 8.300781 30.980469 8.121094 28.144531 C 8.675781 28.433594 9.238281 28.707031 9.808594 28.984375 C 11.847656 29.964844 13.984375 30.859375 16.15625 31.65625 L 16.148438 31.65625 L 16.15625 31.769531 L 15.84375 32.324219 L 15.554688 32.507812 L 15.632812 32.636719 L 15.683594 32.902344 L 15.527344 32.902344 C 15.527344 32.902344 15.527344 33.265625 15.527344 33.480469 C 15.527344 33.6875 15.945312 33.769531 15.945312 33.769531 L 15.816406 33.851562 C 15.816406 33.851562 15.84375 33.976562 15.972656 34.191406 C 16.105469 34.402344 16.210938 34.589844 16.261719 34.765625 C 16.316406 34.949219 16.394531 35.472656 16.394531 35.472656 C 16.394531 35.472656 16.738281 36.050781 16.894531 36.292969 C 17.050781 36.523438 17.367188 36.84375 17.496094 37.105469 C 17.628906 37.367188 17.914062 37.238281 18.464844 37.367188 C 19.015625 37.5 19.25 37.683594 19.25 37.683594 C 19.25 37.683594 19.539062 37.917969 19.722656 38.023438 C 19.90625 38.128906 20.089844 38.128906 20.585938 38.128906 C 21.0625 38.128906 20.753906 38.15625 21.335938 38.246094 L 21.429688 38.257812 C 22.128906 38.359375 21.574219 38.3125 22.242188 38.617188 L 22.269531 38.628906 C 22.429688 38.703125 22.515625 38.734375 22.566406 38.761719 C 22.617188 38.882812 22.59375 39.109375 22.609375 39.203125 C 22.636719 39.335938 22.820312 39.179688 22.953125 39.179688 C 23.054688 39.179688 23.078125 39.257812 23.191406 39.328125 C 23.222656 39.351562 23.265625 39.371094 23.316406 39.390625 C 23.550781 39.46875 23.605469 39.3125 23.605469 39.3125 L 23.867188 39.625 L 24.078125 39.914062 L 23.867188 40.414062 L 23.6875 40.597656 C 23.6875 40.597656 23.714844 40.363281 23.6875 40.171875 C 23.65625 39.992188 23.503906 40.257812 23.503906 40.257812 L 23.34375 40.757812 L 23.917969 41.3125 L 24.09375 41.46875 L 24.46875 41.8125 L 24.492188 41.878906 L 24.707031 42.496094 L 24.679688 42.703125 L 24.808594 43.050781 C 24.808594 43.050781 24.644531 43.121094 24.492188 43.15625 C 24.4375 43.167969 24.382812 43.179688 24.339844 43.179688 C 24.261719 43.179688 24.167969 43.273438 24.09375 43.363281 C 24.011719 43.464844 23.945312 43.574219 23.945312 43.574219 C 23.945312 43.574219 24.003906 43.691406 24.09375 43.8125 C 24.148438 43.890625 24.214844 43.96875 24.285156 44.019531 C 24.324219 44.050781 24.355469 44.0625 24.386719 44.089844 C 24.417969 44.09375 24.445312 44.101562 24.472656 44.105469 C 24.464844 44.117188 24.460938 44.128906 24.453125 44.136719 L 24.457031 44.136719 L 24.378906 44.273438 C 24.152344 44.664062 23.863281 45.152344 23.535156 45.664062 C 21.617188 45.292969 19.761719 44.625 18.035156 43.683594 C 18.035156 43.6875 18.039062 43.6875 18.042969 43.6875 C 18.09375 47.132812 18.738281 49.367188 19.996094 49.703125 C 22.378906 50.34375 26.242188 43.980469 29.433594 34.675781 C 28.09375 34.375 26.730469 34.039062 25.347656 33.664062 C 10.742188 29.738281 -0.289062 23.53125 0.710938 19.796875 C 1.242188 17.808594 5.085938 16.925781 10.773438 17.125 C 10.707031 17.234375 10.644531 17.351562 10.582031 17.464844 C 12.199219 14.601562 14.574219 12.113281 17.625 10.351562 C 20.660156 8.589844 23.976562 7.773438 27.25 7.792969 C 27.132812 7.789062 27.015625 7.785156 26.898438 7.789062 C 29.566406 2.753906 32.257812 -0.144531 34.238281 0.386719 C 37.960938 1.390625 37.808594 14.074219 33.894531 28.714844 C 33.53125 30.101562 33.136719 31.453125 32.730469 32.769531 C 42.367188 34.652344 49.789062 34.480469 50.4375 32.089844 C 50.773438 30.828125 49.164062 29.15625 46.214844 27.390625 C 46.214844 27.378906 46.214844 27.371094 46.214844 27.367188 C 46.164062 29.335938 45.8125 31.289062 45.175781 33.140625 C 44.566406 33.175781 44.007812 33.175781 43.554688 33.175781 C 43.183594 33.175781 42.894531 33.171875 42.722656 33.164062 C 42.226562 33.144531 41.730469 33.121094 41.230469 33.085938 C 41.320312 32.777344 41.398438 32.550781 41.410156 32.425781 C 41.4375 32.261719 41.527344 32.015625 41.527344 32.015625 L 40.941406 31.882812 L 40.871094 31.496094 L 40.625 31.453125 L 40.398438 31.886719 C 40.398438 31.886719 40.222656 32.15625 40.015625 32.265625 C 39.816406 32.378906 39.546875 32.402344 39.546875 32.402344 L 39.609375 32.089844 C 39.503906 32.042969 39.273438 32.132812 39.273438 32.132812 L 39.25 31.835938 C 39.25 31.835938 39.113281 31.542969 39.003906 31.523438 C 38.890625 31.496094 38.707031 31.25 38.707031 31.25 C 38.707031 31.25 38.640625 31.160156 38.574219 30.976562 C 38.570312 30.972656 38.5625 30.96875 38.554688 30.960938 L 38.585938 30.804688 C 38.585938 30.804688 38.800781 30.566406 38.976562 30.359375 C 39.152344 30.148438 39.210938 30.566406 39.394531 30.71875 C 39.574219 30.871094 39.515625 31.105469 39.515625 31.105469 C 39.515625 31.105469 39.632812 31.167969 39.78125 31.167969 C 39.933594 31.167969 39.992188 31.285156 39.992188 31.285156 L 40.292969 31.402344 L 40.59375 31.074219 C 40.59375 31.074219 40.648438 30.863281 40.859375 30.863281 C 41.070312 30.863281 40.894531 31.132812 40.894531 31.285156 C 40.894531 31.4375 41.042969 31.285156 41.457031 31.105469 C 41.875 30.929688 41.695312 30.957031 42.085938 30.746094 C 42.472656 30.535156 42.265625 30.59375 42.410156 30.476562 C 42.566406 30.359375 42.683594 30.238281 42.683594 30.238281 L 43.011719 30.449219 L 43.371094 30.390625 L 43.734375 30.179688 L 43.734375 30.449219 C 43.734375 30.449219 43.496094 30.75 43.640625 30.957031 C 43.792969 31.167969 43.820312 31.105469 43.734375 31.375 C 43.640625 31.644531 43.699219 31.644531 43.734375 31.796875 C 43.757812 31.910156 43.761719 31.921875 43.765625 31.988281 C 45.121094 27.53125 44.710938 22.542969 42.203125 18.191406 C 41.003906 16.101562 39.433594 14.359375 37.625 12.992188 C 37.679688 12.324219 37.71875 11.660156 37.746094 11.003906 C 40.105469 12.578125 42.152344 14.710938 43.667969 17.34375 C 45.40625 20.359375 46.222656 23.652344 46.21875 26.90625 C 46.21875 26.816406 46.222656 26.734375 46.222656 26.644531 C 51.234375 29.316406 54.121094 32.011719 53.589844 34.003906 Z M 30.742188 13.222656 C 30.742188 13.222656 30.933594 13.113281 31.027344 13.070312 C 31.125 13.03125 31.027344 13.019531 30.933594 12.953125 C 30.839844 12.886719 30.71875 13.007812 30.71875 13.007812 C 30.71875 13.007812 30.664062 13.058594 30.613281 13.179688 C 30.605469 13.191406 30.601562 13.199219 30.597656 13.207031 C 30.546875 13.269531 30.488281 13.105469 30.476562 13.019531 C 30.464844 12.925781 30.117188 12.992188 30.128906 12.992188 C 30.144531 12.992188 30.210938 13.164062 30.210938 13.164062 C 30.210938 13.164062 30.238281 13.328125 30.238281 13.394531 C 30.238281 13.460938 30.238281 13.578125 30.289062 13.660156 C 30.34375 13.742188 30.488281 13.863281 30.488281 13.863281 L 30.597656 13.796875 L 30.636719 13.769531 L 30.800781 13.5 L 30.933594 13.382812 Z M 28.601562 12.03125 C 28.601562 12.03125 28.621094 11.839844 28.726562 11.863281 C 28.832031 11.882812 28.9375 11.609375 28.9375 11.609375 C 28.9375 11.609375 28.851562 11.445312 28.746094 11.445312 C 28.640625 11.445312 28.410156 11.464844 28.410156 11.464844 L 28.347656 11.339844 C 28.347656 11.339844 28.222656 11.316406 28.054688 11.378906 C 27.882812 11.445312 27.839844 11.296875 27.839844 11.296875 L 27.820312 11.042969 L 27.585938 11.105469 L 27.417969 10.957031 C 27.417969 10.957031 27.355469 10.832031 27.460938 10.832031 C 27.5625 10.832031 27.710938 10.851562 27.710938 10.851562 L 27.921875 10.703125 L 27.839844 10.539062 L 27.984375 10.371094 C 27.984375 10.371094 27.691406 10.21875 27.628906 10.332031 C 27.5625 10.433594 27.332031 10.519531 27.332031 10.519531 C 27.332031 10.519531 27.355469 10.453125 27.226562 10.285156 C 27.105469 10.117188 27.289062 10.03125 27.015625 10.09375 C 26.851562 10.132812 26.722656 10.214844 26.644531 10.273438 C 26.585938 10.3125 26.554688 10.347656 26.554688 10.347656 C 26.554688 10.347656 26.257812 10.410156 26.242188 10.515625 C 26.21875 10.617188 26.597656 10.683594 26.597656 10.683594 C 26.597656 10.683594 26.617188 10.652344 26.644531 10.628906 C 26.699219 10.566406 26.800781 10.484375 26.871094 10.558594 C 26.976562 10.660156 27.058594 10.789062 27.058594 10.789062 L 26.660156 11 L 26.644531 10.988281 L 26.449219 10.832031 L 26.050781 10.832031 L 25.863281 10.914062 L 25.484375 10.957031 C 25.484375 10.957031 25.546875 11.144531 25.546875 11.253906 C 25.546875 11.359375 25.378906 11.464844 25.378906 11.464844 L 25.152344 11.445312 L 25.125 11.445312 L 24.890625 11.609375 C 24.890625 11.609375 24.640625 11.632812 24.535156 11.714844 C 24.519531 11.730469 24.5 11.738281 24.480469 11.742188 C 24.382812 11.769531 24.28125 11.703125 24.28125 11.84375 C 24.28125 12.011719 24.304688 12.09375 24.179688 12.117188 C 24.152344 12.125 24.117188 12.128906 24.082031 12.136719 C 23.945312 12.164062 23.78125 12.203125 23.78125 12.203125 C 23.78125 12.203125 23.652344 12.265625 23.546875 12.371094 C 23.445312 12.472656 23.210938 12.539062 23.210938 12.539062 L 23.175781 12.527344 L 22.789062 12.449219 L 22.246094 12.683594 L 22.230469 12.71875 L 22.117188 12.980469 L 21.757812 13.023438 C 21.757812 13.023438 21.464844 13.171875 21.445312 13.273438 C 21.433594 13.328125 21.378906 13.378906 21.328125 13.414062 C 21.28125 13.445312 21.234375 13.464844 21.234375 13.464844 C 21.234375 13.464844 21.023438 13.550781 20.917969 13.632812 C 20.8125 13.714844 20.6875 13.882812 20.6875 13.882812 L 20.597656 14.074219 L 20.75 14.285156 L 20.410156 14.324219 L 20.453125 14.492188 C 20.621094 14.660156 20.726562 14.746094 20.832031 14.660156 C 20.933594 14.574219 20.871094 14.511719 20.996094 14.472656 C 21.070312 14.445312 21.203125 14.398438 21.320312 14.359375 C 21.40625 14.328125 21.480469 14.300781 21.523438 14.28125 C 21.628906 14.242188 21.796875 14.09375 21.921875 14.09375 C 22.050781 14.09375 22.175781 14.070312 22.175781 14.070312 L 22.222656 14.03125 L 22.511719 13.796875 L 22.847656 13.949219 L 23.121094 13.90625 C 23.121094 13.90625 23.121094 13.976562 23.171875 14.027344 C 23.191406 14.046875 23.214844 14.0625 23.25 14.074219 C 23.371094 14.113281 23.5625 14.113281 23.5625 14.113281 C 23.5625 14.113281 23.667969 13.964844 23.816406 13.964844 L 24.191406 13.964844 L 24.234375 13.777344 L 24.472656 13.886719 L 24.507812 13.902344 L 24.695312 14.050781 C 24.695312 14.050781 24.613281 14.074219 24.820312 14.15625 C 24.949219 14.207031 25.070312 14.191406 25.144531 14.164062 C 25.191406 14.152344 25.222656 14.132812 25.222656 14.132812 L 25.582031 14.21875 C 25.582031 14.21875 25.605469 13.882812 25.496094 13.882812 C 25.390625 13.882812 25.183594 13.777344 25.183594 13.777344 L 25.414062 13.691406 L 25.664062 13.652344 L 25.730469 13.925781 L 26.128906 13.796875 L 26.066406 13.566406 L 26.085938 13.207031 L 26.464844 13.269531 L 26.488281 13.519531 C 26.488281 13.519531 26.5625 13.554688 26.644531 13.570312 C 26.730469 13.597656 26.824219 13.601562 26.824219 13.519531 C 26.824219 13.371094 26.738281 13.269531 26.84375 13.269531 C 26.949219 13.269531 27.160156 13.207031 27.160156 13.207031 L 27.265625 13.054688 L 27.414062 12.71875 L 27.578125 12.972656 L 27.8125 12.824219 L 27.769531 12.609375 L 28.273438 12.378906 C 28.273438 12.378906 28.570312 12.335938 28.699219 12.335938 C 28.820312 12.335938 28.863281 12.296875 28.863281 12.296875 C 28.863281 12.296875 28.949219 12.128906 28.820312 12.128906 C 28.703125 12.132812 28.601562 12.03125 28.601562 12.03125 Z M 23.570312 20.195312 L 23.359375 20.296875 L 23.847656 20.53125 L 24.085938 20.542969 L 24.261719 20.554688 C 24.261719 20.554688 24.390625 20.339844 24.414062 20.132812 C 24.421875 20.03125 24.445312 19.992188 24.484375 19.960938 C 24.527344 19.929688 24.59375 19.90625 24.683594 19.835938 C 24.851562 19.710938 24.8125 19.667969 24.769531 19.539062 C 24.738281 19.445312 24.570312 19.457031 24.484375 19.46875 C 24.453125 19.472656 24.433594 19.476562 24.433594 19.476562 L 24.085938 19.648438 L 24.054688 19.667969 L 23.886719 19.453125 L 23.652344 19.519531 L 23.421875 19.75 C 23.398438 19.730469 23.570312 19.773438 23.570312 19.773438 C 23.570312 19.773438 23.632812 19.75 23.804688 19.773438 C 23.96875 19.796875 23.761719 19.941406 23.761719 19.941406 L 23.425781 20.027344 Z M 24.371094 15.261719 L 24.085938 15.277344 L 24.074219 15.277344 C 24.074219 15.277344 24.019531 15.578125 24.085938 15.757812 C 24.085938 15.769531 24.09375 15.777344 24.097656 15.789062 C 24.15625 15.910156 24.28125 16.03125 24.484375 16.058594 C 24.566406 16.070312 24.65625 16.066406 24.769531 16.042969 C 24.957031 16.003906 25.015625 15.988281 25.027344 15.988281 L 25 16 C 25 16 25.035156 15.988281 25.027344 15.988281 L 25.15625 15.941406 L 25.320312 15.875 C 25.320312 15.875 25.589844 15.707031 25.589844 15.558594 C 25.589844 15.40625 25.359375 15.453125 25.171875 15.453125 L 25.15625 15.453125 C 24.984375 15.453125 24.996094 15.429688 24.917969 15.222656 C 24.832031 15.007812 24.832031 15.347656 24.832031 15.347656 C 24.832031 15.347656 24.75 15.328125 24.667969 15.136719 C 24.582031 14.945312 24.5625 14.800781 24.5625 14.800781 L 24.488281 14.839844 L 24.25 14.964844 L 24.3125 15.09375 Z M 24.160156 21.3125 C 24.160156 21.3125 24.246094 21.414062 24.371094 21.589844 C 24.425781 21.660156 24.460938 21.636719 24.484375 21.589844 C 24.519531 21.523438 24.542969 21.421875 24.601562 21.421875 C 24.703125 21.421875 24.621094 21.589844 24.75 21.566406 C 24.875 21.546875 25.148438 21.546875 25.148438 21.546875 L 25.15625 21.554688 L 25.335938 21.757812 C 25.335938 21.757812 25.546875 21.652344 25.570312 21.546875 C 25.589844 21.441406 25.589844 21.441406 25.757812 21.441406 C 25.925781 21.441406 25.863281 21.421875 26.074219 21.25 C 26.285156 21.085938 26.011719 20.9375 25.84375 20.851562 C 25.671875 20.765625 25.816406 20.617188 25.816406 20.617188 L 25.84375 20.320312 C 25.84375 20.320312 25.84375 20.21875 25.816406 20.066406 C 25.796875 19.921875 25.753906 19.816406 25.734375 19.667969 C 25.714844 19.519531 25.566406 19.566406 25.566406 19.566406 L 25.566406 19.375 C 25.566406 19.375 25.882812 19.375 25.988281 19.332031 C 26.09375 19.292969 25.988281 19.078125 25.988281 19.078125 C 25.988281 19.078125 25.738281 18.976562 25.546875 18.914062 C 25.359375 18.851562 25.484375 18.808594 25.800781 18.785156 C 26.113281 18.765625 25.84375 18.617188 25.84375 18.617188 L 25.589844 18.472656 C 25.589844 18.472656 25.464844 18.640625 25.253906 18.726562 C 25.207031 18.742188 25.175781 18.761719 25.152344 18.78125 C 25.078125 18.855469 25.128906 18.945312 25.0625 19.039062 L 25.0625 19.207031 L 25.152344 19.363281 L 25.210938 19.460938 C 25.210938 19.460938 25.191406 19.550781 25.152344 19.640625 C 25.136719 19.6875 25.113281 19.738281 25.085938 19.777344 C 25 19.90625 25.125 20.054688 25.125 20.054688 C 25.125 20.054688 25.125 20.328125 25.085938 20.476562 C 25.042969 20.625 24.722656 20.347656 24.722656 20.347656 L 24.660156 20.710938 L 24.367188 20.710938 L 24.410156 20.898438 L 24.484375 20.953125 L 24.597656 21.046875 L 24.722656 21.238281 L 24.484375 21.148438 L 24.367188 21.109375 Z M 20.859375 11.800781 L 20.5 12.179688 C 20.5 12.179688 20.8125 12.242188 20.921875 12.21875 C 20.984375 12.207031 21.15625 12.09375 21.328125 11.972656 C 21.457031 11.886719 21.585938 11.800781 21.679688 11.734375 C 21.914062 11.585938 21.996094 11.632812 21.996094 11.632812 L 22.082031 11.800781 L 21.574219 12.097656 L 22.164062 12.011719 L 22.234375 11.945312 L 22.464844 11.734375 L 22.695312 11.460938 L 23.054688 11.484375 L 23.1875 11.433594 L 23.492188 11.316406 C 23.492188 11.316406 23.746094 11.152344 23.855469 10.957031 C 23.933594 10.808594 23.992188 10.894531 24.09375 10.917969 C 24.121094 10.925781 24.152344 10.925781 24.191406 10.914062 C 24.355469 10.875 24.273438 10.726562 24.273438 10.578125 C 24.273438 10.507812 24.375 10.5 24.496094 10.503906 C 24.617188 10.503906 24.757812 10.515625 24.824219 10.472656 C 24.949219 10.382812 24.71875 10.21875 24.550781 10.175781 L 24.496094 10.160156 C 24.363281 10.128906 24.292969 10.113281 24.273438 9.984375 C 24.261719 9.90625 24.183594 9.882812 24.09375 9.886719 C 24.011719 9.890625 23.917969 9.921875 23.855469 9.964844 C 23.730469 10.050781 23.480469 10.066406 23.558594 9.898438 C 23.574219 9.871094 23.59375 9.863281 23.605469 9.847656 C 22.953125 9.984375 22.300781 10.160156 21.652344 10.378906 C 21.800781 10.371094 21.863281 10.382812 21.960938 10.382812 C 22.085938 10.382812 21.832031 10.535156 21.832031 10.535156 C 21.832031 10.535156 21.453125 10.660156 21.347656 10.746094 L 21.335938 10.757812 C 21.242188 10.84375 21.285156 10.980469 21.285156 10.980469 C 21.285156 10.980469 21.304688 10.980469 21.335938 10.980469 C 21.402344 10.976562 21.523438 10.972656 21.601562 10.957031 C 21.703125 10.933594 21.789062 10.894531 22.0625 10.722656 C 22.148438 10.671875 22.199219 10.640625 22.234375 10.625 C 22.316406 10.59375 22.320312 10.609375 22.417969 10.554688 C 22.566406 10.464844 22.457031 10.785156 22.457031 10.785156 L 22.855469 10.636719 L 23.179688 10.621094 L 23.300781 10.617188 L 23.425781 10.382812 L 23.179688 10.332031 L 23.046875 10.300781 L 23.175781 10.171875 L 23.179688 10.171875 C 23.238281 10.171875 23.605469 10.175781 23.71875 10.195312 C 23.847656 10.214844 23.71875 10.363281 23.71875 10.363281 L 23.679688 10.527344 L 23.53125 10.804688 C 23.53125 10.804688 23.34375 10.828125 23.195312 10.828125 L 23.179688 10.828125 C 23.035156 10.835938 22.882812 10.996094 22.882812 10.996094 L 22.585938 11.203125 L 22.164062 11.203125 L 22.097656 11.4375 L 21.761719 11.398438 C 21.761719 11.398438 21.722656 11.292969 21.699219 11.144531 C 21.675781 10.996094 21.53125 11.144531 21.53125 11.144531 C 21.53125 11.144531 21.472656 11.394531 21.328125 11.503906 C 21.304688 11.523438 21.273438 11.539062 21.238281 11.546875 C 21.027344 11.585938 20.859375 11.800781 20.859375 11.800781 Z M 25.441406 9.566406 C 25.261719 9.582031 25.082031 9.601562 24.902344 9.621094 C 24.925781 9.628906 24.945312 9.636719 25.003906 9.648438 C 25.128906 9.667969 25.023438 9.710938 25.023438 9.8125 C 25.023438 9.882812 25.054688 9.910156 25.15625 9.929688 C 25.210938 9.9375 25.28125 9.949219 25.382812 9.964844 C 25.679688 10.003906 25.484375 9.875 25.445312 9.625 C 25.441406 9.601562 25.441406 9.582031 25.441406 9.566406 Z M 24.308594 9.8125 C 24.308594 9.8125 24.332031 9.769531 24.347656 9.707031 C 24.316406 9.714844 24.289062 9.714844 24.257812 9.722656 C 24.300781 9.757812 24.308594 9.8125 24.308594 9.8125 Z M 26.71875 9.480469 C 26.695312 9.53125 26.679688 9.585938 26.6875 9.648438 C 26.707031 9.835938 26.75 9.648438 26.875 9.605469 C 26.953125 9.578125 26.96875 9.550781 26.984375 9.480469 C 26.902344 9.480469 26.8125 9.480469 26.71875 9.480469 Z M 14.386719 15.070312 L 14.652344 15.089844 L 14.988281 14.878906 L 15.324219 14.980469 L 15.136719 15.066406 C 15.136719 15.066406 14.949219 15.339844 14.902344 15.46875 C 14.859375 15.59375 15.40625 15.570312 15.40625 15.570312 C 15.40625 15.570312 15.554688 15.171875 15.554688 15.003906 C 15.554688 14.835938 15.996094 14.726562 15.996094 14.726562 L 16.121094 14.390625 L 16.335938 14.539062 C 16.335938 14.539062 16.457031 14.304688 16.4375 14.203125 C 16.414062 14.097656 16.035156 14.074219 16.035156 14.074219 L 16.414062 13.886719 L 16.792969 13.992188 L 16.707031 14.726562 L 17.085938 14.726562 L 17.167969 14.855469 C 17.167969 14.855469 16.644531 15.148438 16.539062 15.148438 C 16.4375 15.148438 16.199219 15.425781 16.199219 15.425781 L 15.992188 15.660156 C 15.992188 15.660156 16.078125 15.785156 16.242188 15.828125 C 16.40625 15.867188 16.40625 15.976562 16.40625 15.976562 C 16.40625 15.976562 16.640625 15.890625 16.640625 15.765625 C 16.640625 15.636719 16.554688 15.597656 16.554688 15.597656 C 16.554688 15.597656 16.742188 15.386719 16.871094 15.238281 C 16.996094 15.089844 17.667969 14.796875 17.796875 14.644531 C 17.921875 14.5 17.835938 14.394531 17.835938 14.394531 L 18.152344 14.203125 C 18.152344 14.203125 18.238281 13.804688 18.277344 13.699219 C 18.316406 13.597656 18.761719 13.382812 19.078125 13.152344 C 19.394531 12.917969 19.4375 12.898438 19.855469 12.792969 C 20.277344 12.6875 19.980469 12.640625 19.957031 12.515625 C 19.9375 12.386719 19.601562 12.683594 19.601562 12.683594 L 19.097656 12.535156 C 19.097656 12.535156 19.308594 12.535156 19.515625 12.367188 C 19.730469 12.203125 19.683594 12.328125 19.832031 12.265625 C 19.980469 12.203125 19.9375 12.136719 19.9375 12.136719 L 20.167969 12.136719 C 20.167969 12.136719 20.359375 11.949219 20.464844 11.777344 C 20.570312 11.609375 20.800781 11.292969 20.800781 11.292969 C 20.800781 11.292969 20.277344 11.589844 20.171875 11.628906 C 20.066406 11.667969 19.898438 11.589844 19.769531 11.589844 C 19.644531 11.589844 19.457031 11.800781 19.246094 11.882812 C 19.035156 11.96875 18.804688 12.097656 18.804688 12.097656 L 18.488281 12.035156 L 18.238281 12.136719 L 17.628906 12.390625 C 17.628906 12.390625 17.730469 12.304688 17.988281 12.15625 C 18.238281 12.007812 18.488281 11.859375 18.488281 11.859375 L 18.890625 11.757812 L 18.925781 11.550781 C 18.761719 11.636719 18.605469 11.71875 18.441406 11.808594 C 16.90625 12.710938 15.542969 13.816406 14.386719 15.070312 Z M 30.222656 32.238281 C 30.644531 30.890625 31.054688 29.492188 31.4375 28.050781 C 34.847656 15.3125 35.238281 4.34375 32.320312 3.5625 C 31.066406 3.222656 29.398438 4.835938 27.636719 7.792969 C 27.613281 7.792969 27.597656 7.792969 27.578125 7.792969 C 29.554688 7.839844 31.511719 8.191406 33.371094 8.835938 C 33.40625 9.445312 33.410156 10.007812 33.40625 10.464844 C 33.410156 10.464844 33.410156 10.464844 33.410156 10.464844 C 33.40625 10.832031 33.402344 11.125 33.398438 11.296875 C 33.339844 12.898438 33.195312 14.535156 32.984375 16.1875 C 32.90625 16.160156 32.816406 16.140625 32.738281 16.136719 C 32.511719 16.117188 32.507812 16.132812 32.507812 16.136719 C 32.507812 16.132812 32.320312 15.976562 32.25 15.855469 C 32.179688 15.734375 32.042969 15.644531 31.78125 15.558594 C 31.519531 15.46875 31.535156 15.660156 31.535156 15.660156 C 31.535156 15.660156 31.292969 15.835938 30.980469 15.800781 C 30.679688 15.765625 30.605469 16.105469 30.597656 16.128906 L 30.371094 16.324219 C 30.371094 16.324219 30.25 16.53125 30.109375 16.53125 C 29.96875 16.53125 29.867188 16.566406 29.867188 16.566406 C 29.867188 16.566406 29.796875 16.828125 29.796875 16.96875 C 29.796875 17.105469 29.65625 17.128906 29.65625 17.128906 C 29.65625 17.128906 29.484375 17.160156 29.363281 17.214844 C 29.242188 17.265625 29.117188 17.335938 28.996094 17.40625 C 28.875 17.472656 28.925781 17.527344 28.683594 17.667969 C 28.441406 17.804688 28.351562 17.859375 28.351562 17.859375 L 28.023438 17.925781 L 28.195312 18.101562 L 27.933594 18.152344 C 27.933594 18.152344 27.914062 18.308594 27.949219 18.433594 C 27.980469 18.554688 28.25 18.570312 28.25 18.570312 C 28.25 18.570312 28.074219 18.710938 27.863281 18.800781 C 27.65625 18.890625 27.65625 18.921875 27.671875 19.011719 C 27.691406 19.097656 27.8125 19.289062 28.160156 19.378906 C 28.511719 19.464844 28.265625 19.359375 28.421875 19.273438 C 28.578125 19.183594 28.75 19.132812 28.75 19.132812 C 28.75 19.132812 28.964844 19.484375 28.964844 19.640625 C 28.964844 19.796875 28.910156 20.09375 28.929688 20.199219 C 28.945312 20.304688 29.117188 20.164062 29.117188 20.164062 L 28.964844 20.335938 C 28.964844 20.335938 28.996094 20.648438 28.996094 20.738281 C 28.996094 20.828125 29.304688 20.773438 29.304688 20.6875 C 29.304688 20.601562 29.476562 20.460938 29.738281 20.445312 C 30 20.425781 29.96875 20.394531 29.96875 20.183594 C 29.96875 19.972656 30.019531 19.695312 30.019531 19.695312 L 30.316406 19.605469 C 30.316406 19.605469 30.484375 19.476562 30.597656 19.371094 C 30.628906 19.34375 30.648438 19.316406 30.664062 19.292969 C 30.703125 19.234375 30.660156 19.179688 30.597656 19.125 C 30.546875 19.082031 30.480469 19.035156 30.4375 18.996094 C 30.347656 18.910156 30.316406 18.632812 30.316406 18.457031 C 30.316406 18.28125 30.316406 18.351562 30.335938 18.230469 C 30.351562 18.117188 30.480469 18.109375 30.597656 18.082031 C 30.609375 18.078125 30.617188 18.074219 30.628906 18.070312 C 30.753906 18.035156 30.90625 17.828125 31.132812 17.722656 C 31.359375 17.613281 31.011719 17.601562 31.011719 17.601562 C 31.011719 17.601562 31.046875 17.410156 31.082031 17.25 C 31.117188 17.09375 31.566406 17.304688 31.566406 17.304688 L 31.742188 17.511719 L 31.535156 17.667969 L 31.292969 18.03125 L 30.945312 18.488281 L 31.226562 19.21875 C 31.226562 19.21875 31.46875 19.339844 31.625 19.320312 C 31.785156 19.304688 31.957031 19.21875 32.058594 19.128906 C 32.105469 19.09375 32.324219 19.03125 32.566406 18.980469 L 32.488281 19.46875 C 32.40625 19.5 32.320312 19.433594 32.121094 19.433594 C 31.847656 19.433594 31.777344 19.558594 31.53125 19.582031 C 31.28125 19.609375 31.429688 19.78125 31.429688 19.902344 C 31.429688 20.027344 31.777344 20.175781 31.777344 20.175781 L 31.507812 20.347656 C 31.507812 20.347656 31.382812 20.074219 31.136719 20.101562 C 30.894531 20.128906 30.988281 20.445312 30.839844 20.570312 C 30.691406 20.695312 30.9375 21.066406 30.9375 21.066406 C 30.9375 21.066406 30.761719 21.089844 30.597656 21.179688 C 30.582031 21.191406 30.5625 21.203125 30.542969 21.214844 C 30.371094 21.335938 30.320312 21.238281 30.320312 21.238281 C 30.320312 21.238281 30.222656 21.089844 30.101562 21.089844 C 29.976562 21.089844 29.800781 21.285156 29.675781 21.335938 C 29.550781 21.382812 29.136719 21.335938 29.136719 21.335938 L 28.863281 21.035156 L 28.636719 21.261719 C 28.636719 21.261719 28.441406 21.214844 28.316406 21.0625 C 28.195312 20.914062 28.316406 20.941406 28.289062 20.816406 C 28.265625 20.695312 28.21875 20.695312 28.21875 20.695312 L 28.339844 20.496094 L 28.660156 20.296875 C 28.660156 20.296875 28.734375 19.855469 28.585938 19.660156 C 28.4375 19.460938 28.4375 19.855469 28.4375 19.855469 L 27.941406 20.175781 L 27.96875 20.84375 L 27.867188 21.140625 L 27.675781 21.09375 L 27.554688 21.242188 C 27.554688 21.242188 27.429688 21.167969 27.234375 21.09375 C 27.035156 21.019531 26.691406 21.339844 26.691406 21.339844 L 26.644531 21.449219 L 26.566406 21.632812 L 26.296875 21.585938 L 26.148438 21.757812 C 26.148438 21.757812 25.976562 21.757812 25.851562 21.757812 C 25.722656 21.757812 25.800781 21.980469 25.800781 21.980469 C 25.800781 21.980469 25.714844 22.078125 25.621094 22.113281 L 25.578125 22.058594 C 25.433594 22.039062 25.394531 22.058594 25.308594 22.128906 C 25.269531 22.164062 25.210938 22.183594 25.152344 22.199219 C 25.082031 22.214844 25.019531 22.222656 25.019531 22.222656 L 24.894531 21.898438 C 24.894531 21.898438 24.804688 21.734375 24.71875 21.863281 C 24.625 21.992188 24.660156 22.078125 24.660156 22.078125 L 24.699219 22.296875 L 24.519531 22.316406 L 24.484375 22.304688 L 24.394531 22.277344 L 24.082031 22.089844 L 24.035156 22.0625 C 24.035156 22.0625 23.820312 22.027344 23.859375 22.167969 C 23.890625 22.3125 24.074219 22.492188 24.074219 22.582031 C 24.074219 22.59375 24.078125 22.601562 24.085938 22.605469 C 24.140625 22.667969 24.398438 22.648438 24.398438 22.765625 C 24.398438 22.890625 24.234375 23.035156 24.234375 23.035156 C 24.234375 23.035156 24.359375 23.140625 24.359375 23.304688 C 24.359375 23.46875 24.324219 23.699219 24.285156 23.804688 C 24.25 23.914062 24.160156 23.878906 24.125 23.988281 C 24.117188 24.015625 24.097656 24.042969 24.082031 24.074219 C 24.027344 24.167969 23.945312 24.257812 23.945312 24.257812 C 23.945312 24.257812 23.675781 24.328125 23.585938 24.289062 C 23.492188 24.257812 23.421875 24.125 23.261719 24.09375 C 23.226562 24.085938 23.195312 24.085938 23.175781 24.089844 C 23.113281 24.097656 23.101562 24.128906 22.941406 24.019531 C 22.722656 23.875 22.652344 23.824219 22.507812 23.769531 C 22.363281 23.71875 22.292969 23.589844 22.292969 23.589844 C 22.292969 23.589844 22.265625 23.574219 22.226562 23.554688 C 22.164062 23.515625 22.0625 23.464844 22.007812 23.464844 C 21.914062 23.464844 21.773438 23.628906 21.773438 23.628906 C 21.773438 23.628906 21.808594 23.773438 21.773438 23.953125 C 21.738281 24.132812 21.808594 24.222656 21.703125 24.292969 C 21.597656 24.367188 21.574219 24.3125 21.558594 24.457031 C 21.539062 24.601562 21.628906 24.527344 21.488281 24.671875 C 21.355469 24.804688 21.417969 24.800781 21.324219 24.867188 C 21.3125 24.871094 21.300781 24.882812 21.289062 24.890625 C 21.144531 24.980469 21.089844 24.964844 21 25.109375 C 20.910156 25.253906 20.875 25.410156 20.875 25.539062 C 20.875 25.664062 21.269531 26.113281 21.269531 26.113281 C 21.269531 26.113281 21.296875 26.121094 21.324219 26.128906 C 21.386719 26.148438 21.488281 26.191406 21.488281 26.277344 C 21.488281 26.40625 21.339844 26.457031 21.488281 26.550781 C 21.628906 26.640625 21.558594 26.65625 21.648438 26.710938 C 21.691406 26.738281 21.960938 26.796875 22.226562 26.851562 C 22.523438 26.910156 22.8125 26.964844 22.8125 26.964844 L 23.011719 26.820312 L 23.351562 26.820312 L 23.441406 26.511719 L 23.710938 26.496094 L 23.730469 26.203125 C 23.730469 26.203125 23.695312 25.917969 23.785156 25.917969 C 23.828125 25.917969 23.960938 25.84375 24.085938 25.765625 C 24.207031 25.691406 24.324219 25.609375 24.324219 25.609375 C 24.324219 25.609375 24.390625 25.625 24.484375 25.636719 C 24.621094 25.660156 24.808594 25.671875 24.863281 25.628906 C 24.953125 25.554688 25.152344 25.265625 25.152344 25.265625 C 25.152344 25.265625 25.109375 25.035156 25.15625 24.9375 C 25.171875 24.90625 25.1875 24.890625 25.222656 24.890625 C 25.363281 24.890625 25.707031 24.910156 25.816406 25.015625 C 25.921875 25.121094 26.1875 25.265625 26.300781 25.25 C 26.394531 25.234375 26.539062 25.136719 26.648438 25.0625 L 26.691406 25.03125 C 26.730469 25.003906 26.839844 24.929688 26.953125 24.839844 C 26.960938 24.851562 26.964844 24.855469 26.964844 24.855469 C 26.964844 24.855469 27.214844 24.886719 27.285156 25.015625 C 27.355469 25.140625 27.390625 25.378906 27.355469 25.519531 C 27.320312 25.660156 27.589844 25.789062 27.679688 25.894531 C 27.769531 26.003906 28.203125 26.578125 28.34375 26.757812 C 28.488281 26.9375 28.777344 27.261719 28.777344 27.261719 L 28.921875 27.605469 L 28.617188 27.820312 C 28.617188 27.820312 28.292969 27.800781 28.183594 27.765625 C 28.078125 27.730469 27.988281 27.839844 27.988281 27.839844 C 27.988281 27.839844 27.914062 27.800781 27.753906 27.660156 C 27.59375 27.515625 27.703125 27.679688 27.503906 27.785156 C 27.304688 27.894531 27.753906 28.054688 27.863281 28.144531 C 27.96875 28.238281 28.113281 28.394531 28.183594 28.492188 C 28.257812 28.578125 28.4375 28.457031 28.4375 28.3125 C 28.4375 28.164062 28.453125 28.042969 28.453125 28.042969 L 28.777344 28.042969 L 28.976562 27.808594 L 29.140625 27.664062 L 29.214844 27.464844 L 29.085938 27.105469 C 29.085938 27.105469 29.304688 27.035156 29.386719 27.035156 C 29.480469 27.035156 29.566406 27.304688 29.566406 27.304688 L 29.660156 27.339844 C 29.660156 27.339844 29.660156 27.125 29.605469 27.035156 C 29.554688 26.941406 29.265625 26.730469 29.265625 26.730469 C 29.265625 26.730469 28.941406 26.601562 28.847656 26.53125 C 28.757812 26.460938 28.550781 26.082031 28.4375 25.886719 C 28.332031 25.6875 28.402344 25.667969 28.382812 25.578125 C 28.363281 25.488281 28.183594 25.382812 28.113281 25.257812 C 28.039062 25.128906 28.0625 24.953125 28.0625 24.953125 C 28.0625 24.953125 28.226562 24.84375 28.402344 24.738281 C 28.46875 24.699219 28.5 24.671875 28.503906 24.65625 C 28.574219 24.730469 28.761719 24.945312 28.761719 25.078125 C 28.761719 25.242188 28.832031 25.421875 28.867188 25.527344 C 28.902344 25.632812 29.117188 25.722656 29.40625 25.777344 C 29.695312 25.832031 29.605469 26.027344 29.605469 26.027344 C 29.605469 26.027344 29.871094 26.351562 29.90625 26.570312 C 29.941406 26.785156 29.941406 26.894531 29.960938 27.164062 C 29.980469 27.433594 30.105469 27.464844 30.191406 27.722656 C 30.28125 27.972656 30.316406 27.972656 30.371094 28.167969 C 30.398438 28.261719 30.414062 28.351562 30.445312 28.441406 C 30.269531 29.101562 30.078125 29.765625 29.882812 30.4375 C 29.714844 30.59375 29.59375 31.160156 29.59375 31.160156 C 29.59375 31.160156 29.539062 31.195312 29.460938 31.214844 L 29.089844 31.121094 C 28.902344 30.921875 28.464844 30.839844 28.234375 30.6875 C 28 30.527344 28 30.1875 27.8125 30.03125 C 27.628906 29.871094 27.5 29.953125 27.5 29.953125 C 27.5 29.953125 26.976562 29.847656 26.867188 29.714844 C 26.8125 29.644531 26.71875 29.539062 26.644531 29.453125 C 26.578125 29.378906 26.527344 29.324219 26.527344 29.324219 C 26.527344 29.324219 26.574219 29.273438 26.644531 29.222656 C 26.722656 29.152344 26.820312 29.078125 26.894531 29.0625 C 27.023438 29.03125 26.839844 28.769531 26.683594 28.507812 C 26.523438 28.242188 27.101562 28.164062 27.074219 28.035156 C 27.046875 27.90625 26.800781 27.902344 26.644531 27.828125 L 26.628906 27.824219 C 26.472656 27.742188 26.105469 27.824219 26.105469 27.824219 L 25.605469 27.722656 C 25.605469 27.722656 25.449219 27.769531 25.320312 27.824219 C 25.273438 27.84375 25.210938 27.835938 25.148438 27.800781 C 25.035156 27.757812 24.914062 27.636719 24.847656 27.503906 C 24.777344 27.359375 24.628906 27.390625 24.480469 27.378906 C 24.410156 27.371094 24.339844 27.359375 24.273438 27.320312 C 24.199219 27.277344 24.140625 27.261719 24.082031 27.265625 C 23.964844 27.269531 23.859375 27.328125 23.722656 27.347656 C 23.550781 27.371094 23.324219 27.425781 23.171875 27.445312 C 23.140625 27.453125 23.113281 27.457031 23.089844 27.457031 C 22.960938 27.457031 22.800781 27.558594 22.617188 27.664062 C 22.433594 27.769531 22.386719 27.375 22.386719 27.375 C 22.386719 27.375 22.328125 27.375 22.226562 27.355469 C 22.121094 27.335938 21.957031 27.300781 21.753906 27.21875 C 21.359375 27.058594 21.542969 26.824219 21.542969 26.824219 C 21.542969 26.824219 21.46875 26.882812 21.320312 27.011719 C 21.269531 27.054688 21.21875 27.105469 21.152344 27.164062 C 20.886719 27.398438 20.808594 27.507812 20.574219 27.480469 C 20.339844 27.449219 20.207031 27.558594 20.050781 27.636719 C 19.90625 27.710938 19.585938 28.269531 19.535156 28.363281 C 16.410156 27.285156 13.320312 26.023438 10.527344 24.535156 C 10.40625 24.472656 10.210938 24.363281 9.96875 24.226562 C 9.554688 23.996094 9.003906 23.664062 8.417969 23.289062 C 8.792969 21.339844 9.46875 19.460938 10.425781 17.714844 C 10.410156 17.738281 10.394531 17.757812 10.386719 17.785156 C 6.953125 17.835938 4.726562 18.480469 4.390625 19.738281 C 3.609375 22.664062 13.277344 27.800781 25.984375 31.21875 C 27.429688 31.589844 28.84375 31.933594 30.222656 32.238281 Z M 26.359375 26.855469 C 26.273438 26.890625 26.273438 27.085938 26.273438 27.085938 C 26.273438 27.085938 26.34375 27.175781 26.433594 27.191406 C 26.488281 27.203125 26.554688 27.195312 26.648438 27.175781 C 26.691406 27.167969 26.746094 27.152344 26.800781 27.136719 C 26.976562 27.085938 26.871094 26.996094 26.90625 26.875 C 26.941406 26.753906 26.941406 26.589844 27.011719 26.46875 C 27.078125 26.347656 26.867188 26.257812 26.867188 26.257812 C 26.867188 26.257812 26.703125 26.488281 26.644531 26.578125 L 26.640625 26.589844 C 26.589844 26.675781 26.449219 26.820312 26.359375 26.855469 Z M 26.648438 25.914062 C 26.742188 25.894531 26.949219 25.839844 26.996094 25.730469 C 27.046875 25.589844 27.027344 25.660156 27.082031 25.5 C 27.136719 25.339844 26.941406 25.554688 26.941406 25.554688 L 26.710938 25.691406 L 26.648438 25.828125 L 26.609375 25.921875 C 26.609375 25.921875 26.621094 25.921875 26.648438 25.914062 Z M 26.648438 25.914062 "/>
</g>
</svg>
