<?xml version="1.0" encoding="UTF-8"?>
<svg xmlns="http://www.w3.org/2000/svg" xmlns:xlink="http://www.w3.org/1999/xlink" width="55pt" height="49pt" viewBox="0 0 55 49" version="1.1">
<g id="surface1">
<path style=" stroke:none;fill-rule:evenodd;fill:rgb(14.901961%,14.901961%,14.901961%);fill-opacity:1;" d="M 40.78125 48.300781 C 38.613281 44.589844 35.417969 42.902344 31.203125 42.921875 C 28.804688 42.9375 26.402344 42.84375 24.007812 42.949219 C 21.898438 43.046875 19.9375 42.730469 18.089844 41.691406 C 17.21875 41.199219 16.238281 41.039062 15.277344 40.820312 C 12.945312 40.292969 10.667969 39.589844 8.335938 39.011719 C 5.050781 38.199219 4.269531 37.730469 1.851562 36.773438 C 1.453125 36.617188 0.972656 36.742188 0.78125 36.253906 C 0.601562 35.785156 0.574219 35.289062 0.910156 34.886719 C 1.496094 34.191406 2.089844 33.855469 3.144531 33.917969 C 3.222656 33.921875 3.316406 33.921875 3.378906 33.886719 C 5.273438 32.816406 5.269531 33.539062 7.191406 33.699219 L 12.605469 34.390625 C 13.558594 34.320312 20.714844 36.054688 21.128906 35.234375 C 18.914062 35.234375 16.332031 33.507812 16.648438 33.09375 C 17.210938 32.347656 17.996094 32.015625 18.945312 32.019531 C 21.15625 32.027344 23.335938 32.097656 25.5 32.753906 C 27.125 33.246094 28.796875 33.164062 30.484375 32.488281 C 33.242188 31.382812 36.203125 31.023438 38.804688 32.714844 C 42.007812 34.800781 45.046875 37.148438 47.371094 40.300781 C 50.070312 43.972656 51.375 44.8125 54.328125 48.273438 Z M 43.394531 14.878906 C 43 15.289062 42.59375 15.84375 42.152344 16.449219 C 41.273438 17.640625 40.121094 18.914062 38.597656 19.84375 C 37.84375 20.300781 37.027344 20.710938 36.167969 20.988281 C 35.316406 21.285156 34.433594 21.476562 33.613281 21.582031 C 32.878906 21.671875 31.203125 21.894531 30.683594 21.871094 C 31.082031 21.257812 31.5 20.644531 31.980469 20.066406 C 32.296875 19.640625 32.671875 19.269531 33.019531 18.886719 C 33.367188 18.5 33.765625 18.183594 34.128906 17.84375 C 34.511719 17.53125 34.902344 17.261719 35.273438 16.992188 C 35.667969 16.773438 36.046875 16.5625 36.390625 16.371094 C 36.761719 16.234375 37.105469 16.105469 37.40625 15.996094 C 37.703125 15.859375 37.996094 15.863281 38.21875 15.804688 C 38.679688 15.722656 38.945312 15.671875 38.945312 15.671875 C 38.945312 15.671875 38.679688 15.699219 38.210938 15.753906 C 37.980469 15.792969 37.683594 15.769531 37.375 15.886719 C 37.058594 15.976562 36.703125 16.082031 36.3125 16.195312 C 35.945312 16.363281 35.546875 16.546875 35.121094 16.742188 C 34.730469 16.992188 34.300781 17.242188 33.882812 17.527344 C 33.492188 17.851562 33.054688 18.152344 32.664062 18.519531 C 32.28125 18.886719 31.863281 19.246094 31.515625 19.65625 C 31.09375 20.105469 30.695312 20.570312 30.320312 21.039062 C 30.316406 20.972656 30.304688 20.898438 30.308594 20.824219 C 30.300781 20.136719 30.4375 19.273438 30.734375 18.363281 C 31.039062 17.460938 31.523438 16.535156 32.183594 15.695312 C 32.832031 14.835938 33.675781 14.09375 34.628906 13.488281 C 35.589844 12.894531 36.664062 12.4375 37.792969 12.230469 C 38.914062 12.003906 40.074219 12.007812 41.097656 12.234375 C 42.121094 12.46875 42.984375 12.933594 43.472656 13.390625 C 43.726562 13.59375 43.878906 13.851562 43.980469 13.992188 C 44.070312 14.148438 44.117188 14.234375 44.117188 14.234375 C 44.117188 14.234375 44.042969 14.289062 43.902344 14.394531 C 43.769531 14.492188 43.578125 14.703125 43.394531 14.878906 Z M 29.933594 22.351562 C 29.769531 22.613281 29.632812 22.867188 29.488281 23.121094 C 34.808594 23.992188 39.195312 27.636719 41.109375 32.527344 C 40.761719 32.289062 40.414062 32.058594 40.078125 31.84375 C 37.382812 30.085938 34.046875 29.941406 30.246094 31.464844 C 28.929688 31.992188 27.628906 32.066406 26.355469 31.683594 C 23.945312 30.953125 21.5625 30.886719 19.308594 30.878906 C 17.808594 30.878906 16.566406 31.476562 15.710938 32.605469 C 15.496094 32.886719 15.378906 33.222656 15.351562 33.566406 C 14.195312 33.359375 13.515625 33.253906 13.070312 33.25 L 12.714844 33.207031 C 14.441406 28.105469 18.808594 24.226562 24.191406 23.195312 C 24.09375 23.023438 24.003906 22.855469 23.894531 22.679688 C 23.746094 22.441406 23.449219 21.800781 23.488281 21.644531 C 23.507812 21.550781 23.503906 21.460938 23.507812 21.367188 C 23.132812 20.898438 22.738281 20.433594 22.316406 19.984375 C 21.960938 19.574219 21.546875 19.214844 21.160156 18.847656 C 20.773438 18.476562 20.335938 18.179688 19.945312 17.859375 C 19.523438 17.570312 19.097656 17.316406 18.707031 17.070312 C 18.28125 16.878906 17.882812 16.691406 17.511719 16.523438 C 17.121094 16.410156 16.765625 16.304688 16.449219 16.214844 C 16.140625 16.101562 15.847656 16.121094 15.613281 16.078125 C 15.148438 16.03125 14.882812 16.003906 14.882812 16.003906 C 14.882812 16.003906 15.144531 16.046875 15.605469 16.132812 C 15.832031 16.191406 16.121094 16.1875 16.417969 16.324219 C 16.722656 16.4375 17.0625 16.5625 17.4375 16.699219 C 17.78125 16.894531 18.160156 17.101562 18.554688 17.320312 C 18.917969 17.589844 19.316406 17.859375 19.699219 18.171875 C 20.058594 18.511719 20.460938 18.828125 20.808594 19.214844 C 21.15625 19.597656 21.527344 19.96875 21.84375 20.394531 C 22.324219 20.972656 22.746094 21.585938 23.140625 22.195312 C 22.625 22.222656 20.945312 22 20.210938 21.910156 C 19.390625 21.804688 18.511719 21.613281 17.660156 21.320312 C 16.796875 21.039062 15.984375 20.632812 15.226562 20.171875 C 13.707031 19.242188 12.550781 17.96875 11.675781 16.777344 C 11.234375 16.171875 10.824219 15.617188 10.433594 15.207031 C 10.246094 15.027344 10.058594 14.820312 9.921875 14.722656 C 9.78125 14.617188 9.710938 14.5625 9.710938 14.5625 C 9.710938 14.5625 9.757812 14.476562 9.847656 14.320312 C 9.945312 14.179688 10.101562 13.921875 10.355469 13.71875 C 10.84375 13.261719 11.707031 12.796875 12.730469 12.566406 C 13.753906 12.335938 14.917969 12.332031 16.035156 12.558594 C 17.164062 12.765625 18.238281 13.222656 19.199219 13.816406 C 20.152344 14.421875 20.996094 15.164062 21.644531 16.023438 C 22.304688 16.863281 22.789062 17.789062 23.09375 18.691406 C 23.390625 19.605469 23.527344 20.464844 23.519531 21.152344 C 23.523438 21.226562 23.507812 21.296875 23.507812 21.367188 C 23.96875 21.953125 24.378906 22.527344 24.757812 23.09375 C 25.503906 22.980469 26.265625 22.917969 27.039062 22.917969 C 27.132812 22.917969 27.21875 22.9375 27.3125 22.9375 C 27.421875 22.441406 27.523438 21.933594 27.617188 21.398438 C 27.675781 21.027344 27.941406 20.128906 28.113281 20.011719 C 28.210938 19.933594 28.285156 19.839844 28.371094 19.753906 C 28.316406 20.894531 28.199219 21.980469 28.0625 22.996094 C 28.328125 23.015625 28.601562 23.027344 28.863281 23.058594 C 29.292969 22.40625 29.78125 21.722656 30.320312 21.039062 C 30.324219 21.132812 30.320312 21.222656 30.339844 21.320312 C 30.378906 21.46875 30.078125 22.113281 29.933594 22.351562 Z M 30.285156 16.734375 C 29.785156 17.894531 29.171875 18.871094 28.566406 19.550781 C 28.507812 19.628906 28.433594 19.683594 28.367188 19.753906 C 28.402344 18.960938 28.417969 18.152344 28.386719 17.339844 C 28.390625 16.621094 28.289062 15.90625 28.226562 15.203125 C 28.164062 14.503906 27.984375 13.820312 27.875 13.160156 C 27.707031 12.507812 27.503906 11.886719 27.328125 11.304688 C 27.074219 10.738281 26.839844 10.210938 26.617188 9.71875 C 26.328125 9.269531 26.066406 8.855469 25.832031 8.488281 C 25.621094 8.105469 25.304688 7.871094 25.113281 7.628906 C 24.695312 7.175781 24.453125 6.914062 24.453125 6.914062 C 24.453125 6.914062 24.675781 7.191406 25.0625 7.675781 C 25.234375 7.929688 25.527344 8.179688 25.703125 8.574219 C 25.90625 8.949219 26.136719 9.375 26.386719 9.835938 C 26.566406 10.324219 26.757812 10.859375 26.964844 11.421875 C 27.089844 12.007812 27.246094 12.621094 27.363281 13.261719 C 27.421875 13.914062 27.546875 14.578125 27.558594 15.265625 C 27.570312 15.949219 27.617188 16.640625 27.558594 17.339844 C 27.535156 18.332031 27.421875 19.308594 27.285156 20.261719 C 26.746094 19.835938 25.269531 18.152344 24.613281 17.429688 C 23.894531 16.609375 23.183594 15.652344 22.59375 14.617188 C 21.980469 13.59375 21.527344 12.476562 21.175781 11.363281 C 20.46875 9.117188 20.425781 6.84375 20.59375 4.894531 C 20.683594 3.90625 20.757812 3.003906 20.726562 2.253906 C 20.691406 1.910156 20.6875 1.542969 20.636719 1.328125 C 20.59375 1.101562 20.5625 0.980469 20.5625 0.980469 C 20.5625 0.980469 20.683594 0.941406 20.910156 0.863281 C 21.132812 0.804688 21.511719 0.6875 21.941406 0.703125 C 22.824219 0.671875 24.082031 0.960938 25.304688 1.621094 C 26.519531 2.28125 27.683594 3.289062 28.597656 4.488281 C 29.539062 5.675781 30.210938 7.066406 30.648438 8.492188 C 31.070312 9.925781 31.265625 11.398438 31.164062 12.8125 C 31.089844 14.226562 30.765625 15.570312 30.285156 16.734375 Z M 30.285156 16.734375 "/>
</g>
</svg>
