<?xml version="1.0" encoding="UTF-8"?>
<svg xmlns="http://www.w3.org/2000/svg" xmlns:xlink="http://www.w3.org/1999/xlink" width="55pt" height="55pt" viewBox="0 0 55 55" version="1.1">
<g id="surface1">
<path style=" stroke:none;fill-rule:evenodd;fill:rgb(14.901961%,14.901961%,14.901961%);fill-opacity:1;" d="M 54 15.898438 C 51.027344 16.449219 47.6875 17.828125 46.113281 18.53125 C 45.609375 17.75 45.027344 17.03125 44.355469 16.359375 L 39.484375 11.488281 C 38.8125 10.820312 38.085938 10.234375 37.3125 9.734375 C 38.015625 8.15625 39.394531 4.816406 39.945312 1.847656 C 40.136719 0.816406 41.476562 0.519531 42.09375 1.367188 C 43.148438 2.816406 44.195312 4.683594 43.882812 6.082031 L 51.105469 3.183594 C 52.085938 2.789062 53.0625 3.765625 52.667969 4.742188 L 49.761719 11.960938 C 51.160156 11.648438 53.027344 12.695312 54.480469 13.75 C 55.332031 14.367188 55.03125 15.703125 54 15.898438 Z M 42.730469 17.984375 C 47.230469 22.488281 46.769531 29.726562 42.171875 33.695312 L 31.894531 27.8125 L 37.054688 36.824219 L 18.246094 47.386719 L 11.503906 43.753906 L 14.574219 49.449219 L 5.425781 54.59375 C 4.914062 54.875 4.398438 55 3.90625 55 C 1.757812 55 0.0117188 52.613281 1.246094 50.410156 L 13.019531 29.46875 L 21.367188 34.53125 L 15.558594 24.957031 L 20.910156 15.445312 C 22.921875 11.871094 26.582031 9.96875 30.285156 9.96875 C 32.996094 9.96875 35.734375 10.988281 37.859375 13.113281 Z M 42.730469 17.984375 "/>
</g>
</svg>
