<?xml version="1.0" encoding="UTF-8"?>
<svg xmlns="http://www.w3.org/2000/svg" xmlns:xlink="http://www.w3.org/1999/xlink" width="47pt" height="44pt" viewBox="0 0 47 44" version="1.1">
<g id="surface1">
<path style=" stroke:none;fill-rule:evenodd;fill:rgb(14.901961%,14.901961%,14.901961%);fill-opacity:1;" d="M 44.421875 33.039062 L 18.234375 33.039062 C 15.191406 33.039062 12.519531 31.09375 11.585938 28.195312 L 4.378906 5.84375 C 4.347656 5.746094 4.257812 5.679688 4.152344 5.679688 L 2.578125 5.679688 C 1.234375 5.679688 0.148438 4.59375 0.148438 3.253906 C 0.148438 1.910156 1.234375 0.824219 2.578125 0.824219 L 4.152344 0.824219 C 6.371094 0.824219 8.316406 2.242188 8.996094 4.355469 L 16.207031 26.707031 C 16.492188 27.589844 17.308594 28.183594 18.234375 28.183594 L 44.421875 28.183594 C 45.765625 28.183594 46.851562 29.269531 46.851562 30.613281 C 46.851562 31.953125 45.765625 33.039062 44.421875 33.039062 Z M 41.800781 23.960938 C 41.621094 24.703125 40.957031 25.230469 40.191406 25.230469 L 19.886719 25.230469 C 19.164062 25.230469 18.527344 24.765625 18.308594 24.074219 L 13.316406 8.46875 C 13.058594 7.660156 13.199219 6.773438 13.703125 6.085938 C 14.203125 5.398438 15.003906 4.992188 15.855469 4.992188 L 42.972656 4.992188 C 43.789062 4.992188 44.558594 5.367188 45.0625 6.007812 C 45.570312 6.648438 45.753906 7.484375 45.5625 8.277344 Z M 19.957031 35.835938 C 22.09375 35.835938 23.828125 37.570312 23.828125 39.710938 C 23.828125 41.851562 22.09375 43.582031 19.957031 43.582031 C 17.820312 43.582031 16.085938 41.851562 16.085938 39.710938 C 16.085938 37.570312 17.820312 35.835938 19.957031 35.835938 Z M 40.285156 35.835938 C 42.425781 35.835938 44.15625 37.570312 44.15625 39.710938 C 44.15625 41.851562 42.425781 43.582031 40.285156 43.582031 C 38.148438 43.582031 36.414062 41.851562 36.414062 39.710938 C 36.414062 37.570312 38.148438 35.835938 40.285156 35.835938 Z M 40.285156 35.835938 "/>
</g>
</svg>
