<svg version="1.0" xmlns="http://www.w3.org/2000/svg" width="1201.333" height="1201.333" viewBox="0 0 901 901"><path d="M384.3 1.4c-33 7.6-60.5 52.6-69.7 114.3-7.6 50.6-5 114.8 7.9 190.9 12.5 73.7 36.7 161.8 63.1 229.9 10.3 26.3 14.7 36.5 15.8 36.5 1.1-.1 17.2-7.5 25.4-11.8 2.3-1.2 4.2-2.7 4.2-3.2s-2.5-8.2-5.5-17.2c-22.9-67.2-40-141.8-48.9-213.8-2.2-17.4-4.6-50.4-4.6-63.2v-10.7l14.3-7c51.4-25.6 113.4-30.5 194.7-15.6 45.4 8.3 97.5 25 131.3 42.1l7.8 3.9-10.2 14.5c-13.9 20-30.2 42-30.8 42-.3 0-2.2-2.8-4.1-6.2-10.6-18.7-34.5-44.9-51.9-56.7-9.1-6.2-23.6-13.1-27.6-13.1l-2 .1 2 1.1c5.1 2.9 22.7 17 29.8 23.8 13.4 12.7 27.5 31.8 37.2 50.2l4 7.6 16.5 6.6c9.1 3.6 17 6.6 17.5 6.5 1.1 0 15.1-21.6 30-46.4 5.3-8.8 10-16.4 10.5-16.9 1.9-2 26.8 16.4 38.8 28.6 12.9 13.1 19.3 24.4 20 35.5 1.1 16.8-10.1 26.7-31.3 27.5-3 .1-5.5.5-5.5.8 0 .3 5.9 3.8 13.2 7.8l13.1 7.3 9.1-.6c39.7-2.7 58.2-12.3 63.3-33 1.5-6 1.5-7.2 0-14.5-4.9-25.1-28.7-53.5-65.2-78-52.3-35.1-121.6-59.1-200.2-69.4-2.4-.3-6-.8-8-1.1-27.4-3.5-77.5-5.1-101.8-3.2-39.7 3.1-81.3 15.1-109.2 31.6L372 232v-3.2c.1-7.2 3-33.4 5-44.5 4.2-22.8 12-43.9 21.4-58.2 5.7-8.5 17.9-20.2 24.8-23.7 17-8.6 39.6.5 65.6 26.4 12.1 11.9 30.4 35.3 47 59.8 2.2 3.4 4.7 6.4 5.4 6.6.7.3 4.2.6 7.8.7 3.6.1 11.7.6 18 1.1 6.3.5 11.5.8 11.7.7.4-.5-20.1-36.9-29.9-53.2C503.7 69.9 465.5 27 428.5 9c-16.2-7.9-31.4-10.5-44.2-7.6z"/><path d="M827 70.7c-4.4 19.8-26.2 69.2-49.1 111-8.7 15.9-27.2 47.7-32.5 55.8-1.6 2.4-1.6 2.4 8.2 7 5.3 2.5 9.8 4.4 9.9 4.3 1.1-1.2 26-52.2 31.6-64.4 15.5-34.3 31-76.1 34.4-93.3 1.8-8.8 1.7-23.3-.2-25.2-.6-.6-1.4 1-2.3 4.8zm-582 52.2c-8 2.6-17.5 10.6-24 20.1-24.8 36.5-31.3 103.8-17.5 179.8 6 32.7 19.2 76.7 33 109.7 8 19.4 24.7 53.6 34 70 25.1 44.3 56.7 79.7 90.5 101.4 5.2 3.3 10.4 6.7 11.5 7.4 1.8 1.4 1.4 1.7-6.1 5.5-48.9 24.6-91.7 32.1-120.5 21.3-12.1-4.6-18.9-11.2-22.6-22.2-2.7-8.2-2.5-28.9.6-43.3 4-18.8 13.3-43.4 28.1-74.3l6.9-14.3-8.2-17c-4.5-9.3-8.5-17-8.9-17-.3 0-5.6 8.2-11.6 18.2-37.8 63.1-62.6 116.7-72.1 155.9-4.8 20.1-5.6 26.3-5.5 43.9 0 15 .3 17.3 2.8 25.5 3.6 11.9 6.9 17.7 14.1 25.1 7.2 7.4 16.8 12.5 29.3 15.6 7.5 1.9 11.4 2.2 28.2 2.2 16.3 0 21.2-.4 30-2.3 51.1-10.9 105.8-39 170.4-87.5 46.7-35 83.7-68.1 136.5-122.1 25.9-26.5 59.2-64.9 81.7-94.1l9.8-12.7-3.5-2.9c-1.9-1.7-8.1-6.1-13.9-9.9l-10.5-7-3 3.4c-1.6 1.8-9.7 10.9-18 20.2-57.1 64.2-136.5 132.7-199.6 172.2l-13 8.1-5.3-3c-22.3-12.8-46.4-35.2-65.7-60.9-32.2-42.9-62.1-117.1-75.3-186.9-2.6-13.6-5.9-38.8-7.1-53.3l-.6-7.7h4.4c7.3 0 62.6 5.6 63.4 6.4.1.1-2.8 6.3-6.6 13.8-7.6 15.1-13.9 32.9-17.2 48.8-2.8 13-3.2 35.1-.9 44.5 1.2 4.9 1.5 5.5 1.7 3 4-40.2 12.6-66.4 31-94.9 4-6.2 4.5-7.5 3.9-11-2.6-18.9-4.8-32.2-5.4-32.8-.4-.4-9-1-19.2-1.4-10.2-.3-19.8-.8-21.5-.9-1.6-.2-9.9-.4-18.4-.4l-15.4-.1.7-11c2.3-38.1 13.9-66.7 30.1-74.5 6.2-2.9 14.5-3.2 19.8-.6 4.3 2.1 11.8 9.2 16.4 15.6l2.2 3-.3-15.2-.2-15.3-6.4-9.7c-8.2-12.6-22.2-26.7-31-31.3-5.7-3-7.6-3.4-15-3.7-4.7-.1-9.6.1-11 .6z"/><path d="M171.8 266.5c-.2.1-5.9.5-12.8.9-36.1 1.9-80.8 7.5-113 14.2-19.5 4-24.3 5.5-33.1 10.1-6 3.1-14.7 10.4-10.8 9 4.6-1.6 26.1-5.8 38.9-7.6 35.8-5 87-7.7 129-6.7l26.6.6-.8-7.8c-.3-4.2-.7-9-.7-10.5l-.1-2.8-11.4.2c-6.3.1-11.6.2-11.8.4zm220.8 11.2c-.5 2.2-2.6 27.2-2.6 30.4 0 .4 3.9 1.4 8.8 2.3 98.9 19.3 204 54.8 274.1 92.9l11.4 6.1-.6 15.6c-1 25.9-8.3 54.7-21 82.9-17.3 38.2-49 82-88.7 122.5-18.7 19.1-30.2 29.5-48.8 44.3-12.3 9.9-32.7 24.3-34.3 24.3-1.1 0-3.8-5.6-18.4-38-12.4-27.5-11.9-25-4.7-25 25.4 0 59-7.5 80.7-18.1 7.5-3.6 23.5-15.2 23.5-16.9 0-.5-2.6.4-5.7 1.9-28 13.5-48.7 18.2-82.2 18.7l-22.5.3-5 4.4c-2.8 2.3-9 7.4-13.8 11.1-4.9 3.8-8.8 7.4-8.8 7.9 0 1.3 15.5 31.1 26.4 50.7 4.7 8.4 8.6 15.7 8.6 16 0 1.2-25.3 12.7-34.7 15.9-13.3 4.4-25.2 6.4-35.5 5.9-7.5-.4-9.7-.9-15.5-3.9-9.3-4.7-12.6-9.5-13.1-18.9-.4-7.3 1.1-13.5 5.5-22.4 1.3-2.6 2.1-4.7 1.6-4.5-.5.2-6.2 3.5-12.7 7.4-13 7.6-14 8.7-20.7 23-13.4 28.5-13.7 49.5-1 62.8 20.1 21.2 73.1 14.8 127.6-15.5 33.9-18.9 65-43 97.5-75.7 29.2-29.3 46.6-50.4 71.2-86.6 42.8-62.7 62.3-114.8 64.1-171.3l.2-7.3 11.5 7.8c35.6 24.1 59.7 50 69.5 74.7 6.1 15.7 6.8 28.4 2 38.3-8.8 17.8-42.5 32.8-86.5 38.3-15.4 1.9-37.4 4-42.5 4-2.7 0-5.6.4-6.3.8-.7.5-5.9 7.8-11.6 16.3l-10.4 15.4 10.6.6c15.1.8 68.3.1 87.5-1.1 80.2-5.1 129.6-20.1 155.4-47.3 12-12.6 17.1-25.7 16-41.2-1.9-27-22.3-60.1-54.7-88.5-25.7-22.7-53.5-40.6-95-61.3-91.8-46-214.3-82.6-334.8-100.2-21.6-3.1-20.9-3.1-21.6.2z"/><path d="M501.5 744.6c-4.4 3-8.1 5.8-8.3 6.2-.3 1.1 22.4 35.9 35.8 54.7 26.9 37.8 57.4 74.4 70.2 84.3 5.6 4.3 13.6 8.6 17.9 9.7 2.2.5 1.7-.3-3.3-5.6-27.9-29.2-68.4-89.3-98.9-146.6-2.4-4.6-4.6-8.3-4.9-8.3-.3 0-4.1 2.5-8.5 5.6z"/></svg>